.
 
http://www.scenetime.com    -   SceneTime [ We been having it ] !!!


How come you press harder on a remote control when you know the battery is dead? so you better seed to get speed ;)

        Seed back for speed


...................................NFO:.................................................








































          
          
              
              
                    
                    
                    
                    

Battle.Los.Angeles.2011.DVDRip.XviD.AC3-Sic.avi

Poster:
[img]http://leetleech.org/images/56416779566118933339.jpg[/img]

IMDB Link: 
http://www.imdb.com/title/tt1217613/

Description:
A Marine Staff Sergeant who has just had his retirement approved goes 
back into the line of duty in order to assist a 2nd Lieutenant and his platoon 
as they fight to reclaim the city of Los Angeles from alien invaders. 

Mediainfo:
General
Complete name                    : Battle.Los.Angeles.2011.DVDRip.XviD.AC3-Sic.avi
Format                           : AVI
Format/Info                      : Audio Video Interleave
File size                        : 1.46 GiB
Duration                         : 1h 51mn
Overall bit rate                 : 1 870 Kbps

Video
ID                               : 0
Format                           : MPEG-4 Visual
Format profile                   : Advanced Simple@L5
Format settings, BVOP            : 1
Format settings, QPel            : No
Format settings, GMC             : No warppoints
Format settings, Matrix          : Default (H.263)
Codec ID                         : XVID
Codec ID/Hint                    : XviD
Duration                         : 1h 51mn
Bit rate                         : 1 414 Kbps
Width                            : 720 pixels
Height                           : 288 pixels
Display aspect ratio             : 2.500
Frame rate                       : 25.000 fps
Color space                      : YUV
Chroma subsampling               : 4:2:0
Bit depth                        : 8 bits
Scan type                        : Progressive
Compression mode                 : Lossy
Bits/(Pixel*Frame)               : 0.273
Stream size                      : 1.10 GiB (76%)
Writing library                  : XviD 1.2.1 (UTC 2008-12-04)

Audio
ID                               : 1
Format                           : AC-3
Format/Info                      : Audio Coding 3
Mode extension                   : CM (complete main)
Codec ID                         : 2000
Duration                         : 1h 51mn
Bit rate mode                    : Constant
Bit rate                         : 448 Kbps
Channel(s)                       : 6 channels
Channel positions                : Front: L C R, Side: L R, LFE
Sampling rate                    : 48.0 KHz
Bit depth                        : 16 bits
Compression mode                 : Lossy
Stream size                      : 357 MiB (24%)
Alignment                        : Aligned on interleaves
Interleave, duration             : 64 ms (1.60 video frames)
Interleave, preload duration     : 192 ms
Title                            : VTS_01_1 T80 3_2ch 448Kbps DELAY 0ms

Screenshots:
[img]http://leetleech.org/images/17006855311487828891.png[/img]
[img]http://leetleech.org/images/72138255487432523003.png[/img]
[img]http://leetleech.org/images/49869313205427010954.png[/img]
[img]http://leetleech.org/images/22723852016685396519.png[/img]
[img]http://leetleech.org/images/14322515089608297820.png[/img]

Note: N/A

Encoder: TheSL

Enjoy!

Respects to CaptainHomey, Cyanide, CM8, Rx, Pirate666, THC, ELEKTRI4KA, Killerhz, 
XtremE, PA, YeFsTe and everyone in the struggle...